<svg width="72" height="73" viewBox="0 0 72 73" fill="none" xmlns="http://www.w3.org/2000/svg">
<g id="folder">
<path id="Vector" d="M49.2001 35.2678H25.6855C25.1503 35.2664 24.6337 35.0963 24.2311 34.7889L14.5455 27.3408C14.213 27.0847 13.7846 26.9435 13.3409 26.9437H4.98225V1.8072C4.98287 1.32807 5.20144 0.868714 5.59002 0.529915C5.97859 0.191116 6.50543 0.000541518 7.05496 0H47.1274C47.677 0.000541229 48.2038 0.191116 48.5924 0.529915C48.981 0.868714 49.1995 1.32807 49.2001 1.8072L49.2001 35.2678Z" fill="#B6B3B3"/>
<path id="Vector_2" d="M14.5921 11.6647C17.0203 11.6647 18.9888 9.94838 18.9888 7.83122C18.9888 5.71405 17.0203 3.99776 14.5921 3.99776C12.1639 3.99776 10.1954 5.71405 10.1954 7.83122C10.1954 9.94838 12.1639 11.6647 14.5921 11.6647Z" fill="white"/>
<path id="Vector_3" d="M31.6763 5.77757H23.511C23.3611 5.77757 23.2173 5.8295 23.1113 5.92193C23.0053 6.01436 22.9458 6.13973 22.9458 6.27045C22.9458 6.40116 23.0053 6.52653 23.1113 6.61896C23.2173 6.71139 23.3611 6.76332 23.511 6.76332H31.6763C31.8262 6.76332 31.97 6.71139 32.076 6.61896C32.182 6.52653 32.2416 6.40116 32.2416 6.27045C32.2416 6.13973 32.182 6.01436 32.076 5.92193C31.97 5.8295 31.8262 5.77757 31.6763 5.77757Z" fill="white"/>
<path id="Vector_4" d="M43.5297 8.89909H23.403C23.1505 8.89909 22.9458 9.12034 22.9458 9.39197C22.9458 9.66359 23.1505 9.88484 23.403 9.88484H43.5297C43.7822 9.88484 43.9869 9.66359 43.9869 9.39197C43.9869 9.12034 43.7822 8.89909 43.5297 8.89909Z" fill="white"/>
<path id="Vector_5" d="M41.9482 15.4981H12.2342C11.993 15.4981 11.7971 15.7194 11.7971 15.991C11.7971 16.2626 11.993 16.4839 12.2342 16.4839H41.9482C42.1893 16.4839 42.3853 16.2626 42.3853 15.991C42.3853 15.7194 42.1893 15.4981 41.9482 15.4981Z" fill="white"/>
<path id="Vector_6" d="M41.9482 18.5649H12.2342C11.993 18.5649 11.7971 18.7861 11.7971 19.0578C11.7971 19.3294 11.993 19.5506 12.2342 19.5506H41.9482C42.1893 19.5506 42.3853 19.3294 42.3853 19.0578C42.3853 18.7861 42.1893 18.5649 41.9482 18.5649Z" fill="white"/>
<path id="Vector_7" d="M41.9482 21.6317H12.2342C11.993 21.6317 11.7971 21.8529 11.7971 22.1245C11.7971 22.3962 11.993 22.6174 12.2342 22.6174H41.9482C42.1893 22.6174 42.3853 22.3962 42.3853 22.1245C42.3853 21.8529 42.1893 21.6317 41.9482 21.6317Z" fill="white"/>
<path id="Vector_8" d="M41.9482 24.6984H12.2342C11.993 24.6984 11.7971 24.9197 11.7971 25.1913C11.7971 25.4629 11.993 25.6842 12.2342 25.6842H41.9482C42.1893 25.6842 42.3853 25.4629 42.3853 25.1913C42.3853 24.9197 42.1893 24.6984 41.9482 24.6984Z" fill="white"/>
<path id="Vector_9" d="M68.6209 49.2873H25.6353C25.2074 49.2884 24.7887 49.1001 24.4312 48.7457L24.403 48.7177V4.54539C24.4036 3.71779 24.6221 2.92436 25.0107 2.33917C25.3993 1.75397 25.9261 1.42479 26.4757 1.42386H66.5481C67.0977 1.42479 67.6245 1.75397 68.0131 2.33917C68.4016 2.92436 68.6202 3.71779 68.6208 4.54539L68.6209 49.2873Z" fill="#177C21"/>
<path id="Vector_10" d="M34.0631 19.2221C36.4913 19.2221 38.4597 17.5058 38.4597 15.3886C38.4597 13.2714 36.4913 11.5551 34.0631 11.5551C31.6348 11.5551 29.6664 13.2714 29.6664 15.3886C29.6664 17.5058 31.6348 19.2221 34.0631 19.2221Z" fill="white"/>
<path id="Vector_11" d="M51.1472 13.335H42.982C42.8321 13.335 42.6883 13.3869 42.5823 13.4793C42.4763 13.5718 42.4167 13.6971 42.4167 13.8278C42.4167 13.9586 42.4763 14.0839 42.5823 14.1763C42.6883 14.2688 42.8321 14.3207 42.982 14.3207H51.1472C51.2972 14.3207 51.4409 14.2688 51.547 14.1763C51.653 14.0839 51.7125 13.9586 51.7125 13.8278C51.7125 13.6971 51.653 13.5718 51.547 13.4793C51.4409 13.3869 51.2972 13.335 51.1472 13.335Z" fill="white"/>
<path id="Vector_12" d="M63.0006 16.4565H42.874C42.6215 16.4565 42.4167 16.6777 42.4167 16.9494C42.4167 17.221 42.6215 17.4422 42.874 17.4422H63.0006C63.2532 17.4422 63.4579 17.221 63.4579 16.9494C63.4579 16.6777 63.2532 16.4565 63.0006 16.4565Z" fill="white"/>
<path id="Vector_13" d="M61.4191 23.0555H31.7052C31.464 23.0555 31.268 23.2768 31.268 23.5484C31.268 23.82 31.464 24.0413 31.7052 24.0413H61.4191C61.6603 24.0413 61.8563 23.82 61.8563 23.5484C61.8563 23.2768 61.6603 23.0555 61.4191 23.0555Z" fill="white"/>
<path id="Vector_14" d="M61.4191 26.1223H31.7052C31.464 26.1223 31.268 26.3435 31.268 26.6152C31.268 26.8868 31.464 27.108 31.7052 27.108H61.4191C61.6603 27.108 61.8563 26.8868 61.8563 26.6152C61.8563 26.3435 61.6603 26.1223 61.4191 26.1223Z" fill="white"/>
<path id="Vector_15" d="M61.4191 29.189H31.7052C31.464 29.189 31.268 29.4103 31.268 29.6819C31.268 29.9535 31.464 30.1748 31.7052 30.1748H61.4191C61.6603 30.1748 61.8563 29.9535 61.8563 29.6819C61.8563 29.4103 61.6603 29.189 61.4191 29.189Z" fill="white"/>
<path id="Vector_16" d="M61.4191 32.2558H31.7052C31.464 32.2558 31.268 32.4771 31.268 32.7487C31.268 33.0203 31.464 33.2416 31.7052 33.2416H61.4191C61.6603 33.2416 61.8563 33.0203 61.8563 32.7487C61.8563 32.4771 61.6603 32.2558 61.4191 32.2558Z" fill="white"/>
<path id="color" d="M0.660954 71.0833V28.3676C0.459964 27.6666 1.58216 27.0168 2.16838 26.7795H13.0344C13.6876 26.648 14.3534 26.9803 14.6047 27.1628L23.7749 34.1725C24.1768 34.7421 25.1985 35.067 25.6591 35.1583H69.9399C71.2965 35.2897 71.8032 36.1988 71.887 36.6369V71.2476C71.7362 72.5619 70.4842 72.854 69.8771 72.8357H2.10557C0.748887 72.3538 0.577208 71.4666 0.660954 71.0833Z" fill="#EDE528"/>
<path id="Vector_17" d="M69.8644 34.994H25.6855C25.2609 34.9944 24.8486 34.8693 24.516 34.6391C24.4896 34.6216 24.4645 34.603 24.4394 34.5833L20.6997 31.7082L14.7529 27.1354C14.3631 26.8353 13.8609 26.6698 13.3409 26.6699H2.53267C1.96654 26.6706 1.42382 26.867 1.02351 27.2161C0.623196 27.5651 0.397949 28.0383 0.397148 28.5319V71.138C0.397949 71.6316 0.623196 72.1048 1.02351 72.4539C1.42382 72.8029 1.96654 72.9993 2.53267 73H69.8644C70.4306 72.9993 70.9733 72.8029 71.3736 72.4539C71.7739 72.1048 71.9992 71.6316 72 71.138V36.856C71.9992 36.3624 71.7739 35.8892 71.3736 35.5401C70.9733 35.1911 70.4306 34.9947 69.8644 34.994ZM71.7487 71.138C71.7481 71.5736 71.5494 71.9912 71.1962 72.2992C70.8429 72.6072 70.364 72.7804 69.8644 72.7809H2.53267C2.03311 72.7804 1.55419 72.6072 1.20095 72.2992C0.847711 71.9912 0.648994 71.5736 0.648386 71.138V28.5319C0.648994 28.0963 0.847711 27.6788 1.20095 27.3708C1.55419 27.0628 2.03311 26.8895 2.53267 26.889H13.3409C13.7999 26.8887 14.2431 27.0348 14.5871 27.2997L20.3203 31.7082L24.2723 34.7476C24.6635 35.0464 25.1654 35.2117 25.6855 35.2131H69.8644C70.364 35.2136 70.8429 35.3868 71.1962 35.6948C71.5494 36.0028 71.7481 36.4204 71.7487 36.856V71.138Z" fill="#3F3D56"/>
</g>
</svg>
